<svg width="546.91" height="145.84" viewBox="41 23.08 546.91 145.84" fill="none" xmlns="http://www.w3.org/2000/svg">
<path d="M130.442 165.973C169.091 156.85 193.025 118.122 183.901 79.475C174.777 40.8278 136.048 16.8942 97.3992 26.0179C58.7504 35.1416 34.8158 73.869 43.9399 112.516C53.0639 151.163 91.7931 175.097 130.442 165.973Z" fill="#5367FF"/>
<path d="M183.901 79.4766C182.6 73.951 180.688 68.7306 178.262 63.8475L178.246 63.8636L132.963 105.723C130.136 108.341 125.928 108.791 122.602 106.848L103.358 95.5716C100.242 93.7565 96.3386 94.0295 93.5114 96.2622C81.5923 105.691 51.0716 129.834 50.6379 130.187C65.6894 158.104 98.0895 173.621 130.441 165.975C169.09 156.851 193.025 118.124 183.901 79.4766Z" fill="#00F3BB"/>
<path d="M266.22 132.36C255.144 132.36 246.171 128.929 239.3 122.065C232.429 115.201 228.993 106.58 228.993 96.2013V96.0005C228.993 85.9562 232.497 77.3853 239.505 70.2874C246.513 63.1895 255.349 59.6406 266.015 59.6406C272.031 59.6406 277.159 60.4274 281.398 62.001C285.636 63.5746 289.704 65.9684 293.601 69.1826L285.602 78.5236C282.594 75.9791 279.569 74.0875 276.526 72.8487C273.484 71.6099 269.809 70.9905 265.502 70.9905C258.939 70.9905 253.418 73.4178 248.94 78.2725C244.462 83.1272 242.223 88.9695 242.223 95.7996V96.0005C242.223 103.299 244.479 109.309 248.991 114.03C253.503 118.75 259.383 121.111 266.63 121.111C273.33 121.111 279.107 119.336 283.961 115.787V102.63H265.605V91.8824H296.165V121.412C287.482 128.711 277.501 132.36 266.22 132.36Z" fill="white"/>
<path d="M312.603 131.155V78.1219H325.012V90.0744C328.84 81.0346 335.233 76.7157 344.189 77.1175V89.974H343.471C337.865 89.974 333.387 91.7652 330.037 95.3476C326.687 98.93 325.012 104.136 325.012 110.966V131.155H312.603Z" fill="white"/>
<path fill-rule="evenodd" clip-rule="evenodd" d="M359.806 124.375C365.276 129.699 372.112 132.36 380.317 132.36C388.589 132.36 395.494 129.665 401.032 124.275C406.57 118.884 409.339 112.372 409.339 104.739V104.538C409.339 96.9044 406.587 90.4092 401.083 85.0523C395.58 79.6954 388.726 77.017 380.522 77.017C372.317 77.017 365.446 79.7121 359.909 85.1025C354.371 90.4929 351.602 97.0383 351.602 104.739V104.94C351.602 112.573 354.337 119.052 359.806 124.375ZM392.417 116.842C389.409 120.09 385.444 121.714 380.521 121.714C375.804 121.714 371.873 120.056 368.728 116.742C365.583 113.427 364.01 109.426 364.01 104.739V104.538C364.01 99.7838 365.515 95.7829 368.523 92.5353C371.531 89.2877 375.462 87.6639 380.316 87.6639C385.102 87.6639 389.067 89.3212 392.212 92.6358C395.357 95.9503 396.93 99.9847 396.93 104.739V104.94C396.93 109.627 395.425 113.595 392.417 116.842Z" fill="white"/>
<path d="M433.878 131.557L416.341 78.1219H429.058L439.928 114.482L451.927 77.921H462.592L474.591 114.482L485.667 78.1219H498.178L480.437 131.557H469.258L457.157 95.2974L444.954 131.557H433.878Z" fill="white"/>
<path d="M522.615 131.557L505.079 78.1219H517.795L528.666 114.482L540.664 77.921H551.33L563.328 114.482L574.404 78.1219H586.915L569.174 131.557H557.996L545.894 95.2974L533.691 131.557H522.615Z" fill="white"/>
</svg>
