<svg width="366.17" height="117.83" viewBox="44.55 28.2 366.17 117.83" fill="none" xmlns="http://www.w3.org/2000/svg">
<path d="M408.905 63.2823C405.512 53.7204 396.567 46.7804 385.926 46.7804H385.617C378.677 46.7804 372.508 49.7106 368.036 54.3373C363.563 49.7106 357.394 46.7804 350.454 46.7804H350.146C344.131 46.7804 338.579 49.0937 334.261 52.6409V50.7902C334.107 48.9395 332.564 47.3972 330.714 47.3972H314.52C312.515 47.3972 310.973 49.0937 310.973 51.0986V140.394C310.973 142.399 312.669 144.096 314.52 144.096H330.714C332.564 144.096 334.107 142.708 334.261 140.857V76.854C334.261 76.5455 334.261 76.3913 334.261 76.2371C334.569 73.4611 336.574 70.9935 339.813 70.685H342.743C344.131 70.8393 345.211 71.3019 346.136 72.073C347.524 73.1526 348.295 75.0033 348.295 76.854L348.449 140.703C348.449 142.708 350.146 144.404 351.996 144.404H368.19C370.195 144.404 371.737 142.862 371.737 140.857V76.854C371.737 74.6948 372.662 72.8442 374.359 71.7646C375.13 71.1477 376.21 70.8393 377.289 70.685H380.219C383.767 70.9935 385.926 73.6153 385.771 76.854L385.926 140.548C385.926 142.553 387.622 144.25 389.473 144.25H405.666C407.671 144.25 409.214 142.553 409.214 140.548V71.9188C410.139 67.2921 409.676 65.2872 408.905 63.2823Z" fill="white"/>
<path d="M298.943 47.8642H289.69V32.596C289.69 30.7454 288.302 29.2031 286.451 29.2031C286.297 29.2031 285.989 29.2031 285.834 29.3573C275.501 32.1334 277.661 46.6304 258.845 47.8642H256.84C256.532 47.8642 256.378 47.8642 256.069 48.0184C254.373 48.3269 253.293 49.8691 253.293 51.5656V68.0675C253.293 70.0724 254.99 71.7689 256.84 71.7689H266.711V141.478C266.711 143.483 268.253 145.025 270.258 145.025H286.297C288.302 145.025 289.844 143.329 289.844 141.478V71.4604H298.943C300.948 71.4604 302.491 69.764 302.491 67.7591V51.4113C302.491 49.4064 300.948 47.8642 298.943 47.8642Z" fill="white"/>
<path d="M240.492 47.8679H224.299C222.294 47.8679 220.752 49.5643 220.752 51.5692V85.6527C220.752 87.8118 219.055 89.5083 216.896 89.5083H210.11C207.951 89.5083 206.255 87.8118 206.255 85.6527L206.101 51.7235C206.101 49.7185 204.404 48.0221 202.553 48.0221H186.36C184.355 48.0221 182.813 49.7185 182.813 51.7235V89.0456C182.813 103.234 192.837 113.259 206.717 113.259C206.717 113.259 217.205 113.259 217.513 113.413C219.364 113.721 220.906 115.264 220.906 117.269C220.906 119.273 219.518 120.816 217.513 121.124C217.359 121.124 217.359 121.124 217.205 121.124L193.454 121.278C191.449 121.278 189.907 122.975 189.907 124.98V141.327C189.907 143.332 191.604 145.029 193.454 145.029H219.981C233.244 145.029 243.885 134.079 243.885 120.816V51.415C244.04 49.4101 242.343 47.8679 240.492 47.8679Z" fill="white"/>
<path d="M84.5723 47.8679H49.1009C47.0959 47.8679 45.5537 49.4101 45.5537 51.415V140.711C45.5537 142.715 46.9417 144.258 48.7924 144.412H65.2944C67.2993 144.412 68.8415 142.715 68.8415 140.711L68.9957 115.726H84.5723C97.5271 115.726 106.626 106.627 106.626 93.3639V70.2303C106.626 56.9671 97.5271 47.8679 84.5723 47.8679ZM83.1843 88.1203C83.1843 90.2794 81.4878 91.9759 79.3287 91.9759H68.9957V71.6183H79.3287C81.4878 71.6183 83.1843 73.3148 83.1843 75.4739V88.1203Z" fill="white"/>
<path d="M147.958 47.8679H125.441C123.437 47.8679 121.894 49.4101 121.894 51.2608V66.6832C121.894 68.6881 123.591 70.2303 125.75 70.2303H147.187C148.883 70.5388 150.271 71.7725 150.426 73.7775V75.9366C150.271 77.7873 148.883 79.1753 147.341 79.3295H136.7C122.511 79.3295 112.487 88.8914 112.487 102.155V121.278C112.487 134.542 121.123 143.949 135.158 143.949H164.614C169.858 143.949 174.176 139.939 174.176 134.85V72.5437C174.176 57.4297 166.465 47.8679 147.958 47.8679ZM150.58 119.119C150.58 119.273 150.58 119.582 150.426 119.736C150.426 119.89 150.271 120.045 150.271 120.199C149.809 121.587 148.267 122.666 146.724 122.666H139.938C137.779 122.666 136.083 120.97 136.083 119.119V104.931C136.083 102.926 137.779 101.383 139.938 101.383H146.724C148.883 101.383 150.58 103.08 150.58 104.931V119.119Z" fill="white"/>
</svg>
